<svg version="1.0" xmlns="http://www.w3.org/2000/svg" width="192" height="192" viewBox="0 0 144 144"><path d="M0 72v72h20V92.7c0-30.4.4-52.6 1-54.7 2.7-9.9 12-18.7 22.7-21.6 9.2-2.5 20.8-.1 26.8 5.6 2 1.9 2.1 1.9 6.5-1.1 16.2-10.9 37.3-5.1 46.1 12.6l2.4 5 .3 52.7.3 52.8H144V0H0v72z"/><path d="M45.4 35.9c-1.7 1.1-3.6 3.4-4.3 5.2-.8 2.2-1.1 18.6-1.1 53V144h23V94.7c0-31.4-.4-50.6-1.1-53-1.9-6.9-10.1-9.7-16.5-5.8zM88.4 35.9c-1.7 1.1-3.6 3.4-4.3 5.2-.8 2.2-1.1 18.6-1.1 53V144h22V92.2c0-47.5-.2-51.9-1.8-53.8-3.8-4.7-9.6-5.7-14.8-2.5z"/></svg>