<svg aria-hidden="true" style="position:absolute;width:0;height:0;overflow:hidden" xmlns="http://www.w3.org/2000/svg">
  <defs>
    <symbol id="banner-arrow" viewBox="0 0 24 32">
      <path fill="#fff"  d="M21.029 17.595l-12.752 12.747c-0.406 0.409-0.968 0.662-1.589 0.662s-1.183-0.253-1.589-0.661l-2.117-2.117c-0.408-0.406-0.66-0.967-0.66-1.588s0.252-1.182 0.66-1.588l9.037-9.040-9.037-9.037c-0.408-0.406-0.66-0.967-0.66-1.588s0.252-1.182 0.66-1.588l0-0 2.109-2.141c0.406-0.409 0.968-0.661 1.589-0.661s1.183 0.253 1.589 0.661l12.749 12.749c0.891 0.88 0.891 2.307 0.011 3.189z">
     </symbol>


  </defs>
</svg>
